<svg width="155" height="40" viewBox="0 0 155 40" fill="none" xmlns="http://www.w3.org/2000/svg">
<ellipse cx="19.9742" cy="20" rx="19.9742" ry="20" fill="#999999"/>
<g clip-path="url(#clip0_4_2915)">
<g filter="url(#filter0_i_4_2915)">
<path d="M25.8516 10.6543C25.2692 10.4874 24.6686 10.3947 24.0316 10.3947C20.5191 10.3947 17.6799 13.2874 17.6799 16.8662C17.6799 17.2371 17.6799 17.6821 17.6981 18.2013V28.6967C17.6981 30.0874 16.5879 31.2 15.2411 31.2C13.8762 31.2 12.7842 30.0689 12.7842 28.6967V16.9404C12.7842 12.453 16.3695 8.79999 20.7739 8.79999C22.703 8.79999 24.4684 9.50462 25.8516 10.6543Z" fill="url(#paint0_linear_4_2915)"/>
</g>
<g filter="url(#filter1_i_4_2915)">
<path d="M28.7636 16.7364V16.9404C28.7636 17.0331 28.7636 17.1073 28.7454 17.1815C28.5088 21.4649 25.0144 24.8768 20.7557 24.8768C19.3907 24.8768 18.2987 23.7457 18.2987 22.3735C18.2987 20.9828 19.4089 19.8702 20.7557 19.8702C22.4119 19.8702 23.7768 18.5166 23.8132 16.8477C23.7586 15.1788 22.4119 13.8252 20.7557 13.8252C19.7911 13.8252 18.9175 14.2888 18.3533 15.0119C17.9347 15.5497 17.6981 16.2172 17.6981 16.959V18.2199C17.6799 17.7007 17.6799 17.2557 17.6799 16.8848C17.6799 13.306 20.5191 10.4133 24.0316 10.4133C24.6686 10.4133 25.2692 10.506 25.8516 10.6729C27.526 12.0821 28.6362 14.159 28.7636 16.5139C28.7636 16.5696 28.7636 16.6623 28.7636 16.7364Z" fill="url(#paint1_linear_4_2915)"/>
</g>
</g>
<path d="M58.9233 10.7536C60.7115 10.7536 62.2017 11.352 63.3938 12.5488C64.604 13.7456 65.2091 15.2325 65.2091 17.0096C65.2091 18.7685 64.604 20.2555 63.3938 21.4704C62.2017 22.6672 60.7115 23.2656 58.9233 23.2656H55.0489V29.7936H51.9331V10.7536H58.9233ZM58.9233 20.328C59.8445 20.328 60.6032 20.0197 61.1992 19.4032C61.7953 18.7685 62.0933 17.9707 62.0933 17.0096C62.0933 16.0485 61.7953 15.2597 61.1992 14.6432C60.6032 14.0085 59.8445 13.6912 58.9233 13.6912H55.0489V20.328H58.9233Z" fill="#999999"/>
<path d="M78.635 29.7936L77.3074 25.9584H69.2334L67.9058 29.7936H64.5191L71.4009 10.7536H75.1399L81.9947 29.7936H78.635ZM70.263 23.0208H76.2778L73.2704 14.4256L70.263 23.0208Z" fill="#999999"/>
<path d="M95.2834 10.7536V13.7456H89.9459V29.7936H86.8301V13.7456H81.4655V10.7536H95.2834Z" fill="#999999"/>
<path d="M108.669 29.7936L104.659 22.8576H100.974V29.7936H97.8584V10.7536H105.445C107.143 10.7536 108.579 11.352 109.753 12.5488C110.945 13.7275 111.541 15.1691 111.541 16.8736C111.541 18.0885 111.189 19.2037 110.484 20.2192C109.798 21.2165 108.895 21.9419 107.775 22.3952L112.083 29.7936H108.669ZM100.974 13.6912V20.056H105.445C106.276 20.056 106.98 19.7477 107.558 19.1312C108.136 18.5147 108.425 17.7621 108.425 16.8736C108.425 15.9851 108.136 15.2325 107.558 14.616C106.98 13.9995 106.276 13.6912 105.445 13.6912H100.974Z" fill="#999999"/>
<path d="M114.746 10.7536H117.861V29.7936H114.746V10.7536Z" fill="#999999"/>
<path d="M137.772 27.2912C135.876 29.1952 133.555 30.1472 130.809 30.1472C128.064 30.1472 125.733 29.1952 123.819 27.2912C121.922 25.3691 120.974 23.0299 120.974 20.2736C120.974 17.5173 121.922 15.1872 123.819 13.2832C125.733 11.3611 128.064 10.4 130.809 10.4C133.555 10.4 135.876 11.3611 137.772 13.2832C139.687 15.1872 140.644 17.5173 140.644 20.2736C140.644 23.0299 139.687 25.3691 137.772 27.2912ZM126.013 25.1696C127.314 26.4571 128.912 27.1008 130.809 27.1008C132.706 27.1008 134.295 26.4571 135.578 25.1696C136.878 23.864 137.528 22.232 137.528 20.2736C137.528 18.3152 136.878 16.6923 135.578 15.4048C134.295 14.0992 132.706 13.4464 130.809 13.4464C128.912 13.4464 127.314 14.0992 126.013 15.4048C124.731 16.6923 124.09 18.3152 124.09 20.2736C124.09 22.232 124.731 23.864 126.013 25.1696Z" fill="#999999"/>
<path d="M155 10.7536V13.7456H149.663V29.7936H146.547V13.7456H141.182V10.7536H155Z" fill="#999999"/>
<defs>
<filter id="filter0_i_4_2915" x="12.7842" y="8.79999" width="13.0674" height="22.4" filterUnits="userSpaceOnUse" color-interpolation-filters="sRGB">
<feFlood flood-opacity="0" result="BackgroundImageFix"/>
<feBlend mode="normal" in="SourceGraphic" in2="BackgroundImageFix" result="shape"/>
<feColorMatrix in="SourceAlpha" type="matrix" values="0 0 0 0 0 0 0 0 0 0 0 0 0 0 0 0 0 0 127 0" result="hardAlpha"/>
<feOffset dx="-0.5" dy="-0.5"/>
<feComposite in2="hardAlpha" operator="arithmetic" k2="-1" k3="1"/>
<feColorMatrix type="matrix" values="0 0 0 0 0.883333 0 0 0 0 0.926449 0 0 0 0 1 0 0 0 1 0"/>
<feBlend mode="normal" in2="shape" result="effect1_innerShadow_4_2915"/>
</filter>
<filter id="filter1_i_4_2915" x="17.6799" y="10.4133" width="11.0837" height="14.4636" filterUnits="userSpaceOnUse" color-interpolation-filters="sRGB">
<feFlood flood-opacity="0" result="BackgroundImageFix"/>
<feBlend mode="normal" in="SourceGraphic" in2="BackgroundImageFix" result="shape"/>
<feColorMatrix in="SourceAlpha" type="matrix" values="0 0 0 0 0 0 0 0 0 0 0 0 0 0 0 0 0 0 127 0" result="hardAlpha"/>
<feOffset dx="-0.5" dy="-0.5"/>
<feComposite in2="hardAlpha" operator="arithmetic" k2="-1" k3="1"/>
<feColorMatrix type="matrix" values="0 0 0 0 0.883333 0 0 0 0 0.926449 0 0 0 0 1 0 0 0 1 0"/>
<feBlend mode="normal" in2="shape" result="effect1_innerShadow_4_2915"/>
</filter>
<linearGradient id="paint0_linear_4_2915" x1="16.9025" y1="10.0184" x2="21.0151" y2="30.8652" gradientUnits="userSpaceOnUse">
<stop stop-color="white"/>
<stop offset="0.484375" stop-color="#F2F2F2"/>
<stop offset="1" stop-color="#ACACAC"/>
</linearGradient>
<linearGradient id="paint1_linear_4_2915" x1="21.1731" y1="11.2" x2="23.2269" y2="24.8761" gradientUnits="userSpaceOnUse">
<stop stop-color="#BCBCBC"/>
<stop offset="0.484375" stop-color="white"/>
<stop offset="1" stop-color="white"/>
</linearGradient>
<clipPath id="clip0_4_2915">
<rect width="15.9794" height="22.4" fill="white" transform="translate(12.7842 8.79999)"/>
</clipPath>
</defs>
</svg>
